<svg width="24" height="24" viewBox="0 0 24 24" fill="none" xmlns="http://www.w3.org/2000/svg">
<g id="arrow right">
<path id="XMLID 1522" d="M19.3651 12.6185L14.3851 17.3489C14.2251 17.5003 14.0251 17.576 13.8251 17.576C13.6251 17.576 13.4251 17.5003 13.2651 17.3489C12.9451 17.0462 12.9451 16.5731 13.2651 16.2704L16.8851 12.8266H5.20511C4.76511 12.8266 4.40511 12.486 4.40511 12.0698C4.40511 11.6535 4.76511 11.3129 5.20511 11.3129H16.8851L13.2651 7.86914C12.9451 7.56639 12.9451 7.09335 13.2651 6.7906C13.5851 6.48785 14.0851 6.48785 14.4051 6.7906L19.3851 11.521C19.6851 11.8427 19.6851 12.3347 19.3651 12.6185Z" fill="black"/>
</g>
</svg>
