<svg width="20" height="20" viewBox="0 0 20 20" fill="none" xmlns="http://www.w3.org/2000/svg">
<g id="Phone 24px">
<path id="Vector" d="M13.4308 13.0671L12.9153 13.8403C12.8124 13.9947 12.6763 14.1264 12.4969 14.1738C11.9095 14.329 10.3499 14.3991 7.97554 12.0247C5.60115 9.65029 5.67123 8.0907 5.82645 7.50326C5.87384 7.32393 6.00554 7.18784 6.15988 7.08495L6.93312 6.56945C7.50883 6.18565 7.66439 5.40782 7.28059 4.83212L5.82018 2.6415C5.48519 2.13901 4.83938 1.94703 4.28428 2.18492L3.62549 2.46726C3.12503 2.68175 2.71679 3.06668 2.47329 3.55368C2.26985 3.96055 2.11217 4.38901 2.09081 4.84341C2.02348 6.27539 2.33748 9.80336 6.26717 13.7331C10.1969 17.6628 13.7248 17.9767 15.1568 17.9094C15.6112 17.888 16.0396 17.7304 16.4465 17.5269C16.9335 17.2834 17.3184 16.8752 17.5329 16.3747L17.8153 15.7159C18.0532 15.1608 17.8612 14.515 17.3587 14.18L15.1681 12.7196C14.5924 12.3358 13.8146 12.4914 13.4308 13.0671Z" fill="#898989"/>
</g>
</svg>
